<svg xmlns="http://www.w3.org/2000/svg" width="1.4in" height="1.4in" viewBox="0 0 99.6 99.6"><path fill="#ce005e" d="M64.5 50.3a14.8 14.8 0 1 1-29.5 0 16 16 0 0 1 .9-5.3H24.6v14.8a15.7 15.7 0 0 0 15.7 15.7h18.9a15.7 15.7 0 0 0 15.7-15.7V45H63.5a13.9 13.9 0 0 1 1 5.3z"/><path fill="#ce005e" d="M49.7 61.1a10.8 10.8 0 0 0 10.8-10.8 10.3 10.3 0 0 0-1.9-6.1 10.7 10.7 0 0 0-17.7 0 10.3 10.3 0 0 0-1.9 6.1 10.7 10.7 0 0 0 10.7 10.8zm13.4-30.2h6.1v6.06h-6.1z"/><path fill="#ce005e" d="M49.7 0a49.8 49.8 0 1 0 49.9 49.8A49.8 49.8 0 0 0 49.7 0zm29.2 59.8a19.7 19.7 0 0 1-19.7 19.7H40.3a19.7 19.7 0 0 1-19.7-19.7V40.9a19.8 19.8 0 0 1 19.7-19.8h18.9a19.8 19.8 0 0 1 19.7 19.8z"/></svg>