<svg xmlns="http://www.w3.org/2000/svg" id="Layer_1" viewBox="0 0 25.2 25.2" width="25.2" height="25.2"><style>.st0{fill:#ce005e}</style><path d="M16.3 12.7c.2 2.1-1.4 3.9-3.4 4s-3.9-1.4-4-3.4v-.6c0-.5.1-.9.2-1.3H6.2v3.7c0 2.2 1.8 4 4 4H15c2.2 0 4-1.8 4-4v-3.7h-2.9c.1.4.2.9.2 1.3z" class="st0"/><path d="M12.6 15.5c1.5 0 2.7-1.2 2.7-2.7 0-.6-.2-1.1-.5-1.5-.8-1.2-2.5-1.6-3.8-.7-.3.2-.5.4-.7.7-.3.5-.5 1-.5 1.5.1 1.4 1.3 2.6 2.8 2.7zM16 7.8h1.5v1.5H16V7.8z" class="st0"/><path d="M12.6 0C5.6 0 0 5.7 0 12.6s5.7 12.6 12.6 12.6c6.9 0 12.6-5.7 12.6-12.6 0-7-5.6-12.6-12.6-12.6zM20 15.1c0 2.8-2.2 5-5 5h-4.8c-2.8 0-5-2.2-5-5v-4.8c0-2.8 2.2-5 5-5H15c2.8 0 5 2.3 5 5v4.8z" class="st0"/></svg>