<svg xmlns="http://www.w3.org/2000/svg" width="4in" height="3in" viewBox="0 0 289.9 215.5"><path d="M289.7 24.3a23 23 0 0 1-23.4 22H78.1c-18.1 0-36.2.2-54.3-.1-9.9-.1-17.4-4.7-21.4-13.9S.1 14.7 6.7 7.3a22.2 22.2 0 0 1 13.6-7c.2-.1.5.1.6-.3h1.2c.4.3.8.1 1.3.1h243.5a20.7 20.7 0 0 1 15.9 6.3c4.5 4.3 7.2 9.6 7 16.1a10.9 10.9 0 0 1-.1 1.8zm0 82.5v1.9c-.7 11.2-8.1 19.6-18.9 21.7a22.5 22.5 0 0 1-4.4.4H23.7c-8.8 0-15.6-3.8-20.1-11.3-8.7-14.7.9-33 18.1-34.7h245.1c12.3-.1 22.1 9.4 22.9 22zm0 84.5v1.9c-.9 12.6-9.8 21.4-22.3 22.1H22.8c-11.2-.7-19.6-7.7-21.9-18.6s5.8-24.8 18.1-27a27.3 27.3 0 0 1 5-.5h242.3a23 23 0 0 1 23.4 22.1z"/></svg>