<svg xmlns="http://www.w3.org/2000/svg" id="Layer_1" viewBox="0 0 25.2 25.2" width="25.2" height="25.2"><style>.st0{fill:#ce005e}</style><path d="M12.6 0C5.6 0 0 5.6 0 12.6s5.6 12.6 12.6 12.6 12.6-5.6 12.6-12.6S19.6 0 12.6 0zm8.3 8.6c-.4.7-.9 1.3-1.4 1.8-.2.1-.3.3-.5.4 0 5.3-4.1 9-8.5 9-2.2 0-4-.8-4.9-1.7-.1-.1-.2-.3-.1-.5s.2-.3.4-.3c1.2 0 2.4-.2 3.5-.6-.7-.1-1.3-.4-1.8-.8-.7-.5-1.1-1.1-1.2-1.5-.1-.2 0-.3.1-.5.1-.1.3-.2.5-.1l.3.1-.3-.2c-.7-.7-1.1-1.7-1.1-2.5 0-.2.1-.3.3-.4h.4l.3.3c-.2-.3-.4-.7-.5-1-.2-1 0-2 .4-3 .1-.2.2-.3.4-.3s.3.1.4.2c1 1.7 2.8 3.1 4.9 3.3.1-.8.3-1.5.8-2.2.6-.8 1.5-1.3 2.5-1.3.8 0 1.5.2 2.1.8.7-.2 1.4-.6 2.1-1l.2-.1c.2 0 .3 0 .4.2.1.1.1.3 0 .5-.2.3-.3.6-.5.9l.2-.1c.2-.1.5 0 .6.2.1.1.1.3 0 .4z" class="st0"/></svg>